<svg width="357" height="42" viewBox="0 0 357 42" preserveAspectRatio="xMinYMin meet" overflow="visible"><g><g><title>Logo/Brand Logo/Horizontal/Light</title><g><title>_LOGO_BB_BLACK</title><g><title>Shape</title><path d="M34.05444,26.31055l-7.0612,8.51123l-9.43994,1.66602l0.57643,-2.99512l5.00422,-1.82471c2.7854,-0.78662 7.64191,-4.33789 6.3387,-12.41357c-0.31584,-2.0752 -0.03357,-3.71729 0.84094,-4.87793c0.46227,-0.71631 1.24958,-1.18018 1.89906,-1.56689l1.8714,2.36182l-0.02764,11.13525zM13.7098,35.3335l-2.7005,-1.67383l0.95742,-4.97656l5.00424,-1.82471c2.78538,-0.78662 7.64973,-4.33789 6.33868,-12.41162c-0.31584,-2.07568 -0.03355,-3.68506 0.84096,-4.87793c1.31077,-1.73828 3.62831,-2.01709 3.63621,-2.01709l-0.00593,-0.0542l1.81218,2.20801c-0.86893,0.51172 -1.69967,1.20654 -2.42019,2.1499c-1.59306,2.0835 -2.15173,4.78564 -1.65623,8.0293c0.97321,6.38135 -2.94767,7.74463 -3.48223,7.87305l-7.39679,2.68604l-0.92582,4.88965zM29.20615,2.87842l-12.93204,-2.35449l1.54173,4.41797l4.4219,0.80518c-0.43429,0.36914 -0.85083,0.79688 -1.23182,1.29492c-1.59306,2.0835 -2.15173,4.78516 -1.65623,8.0293c0.97322,6.38135 -3.044,7.74414 -3.48223,7.87305l-7.39679,2.6875l-1.12718,5.86377l-0.60998,-0.25732l-2.33138,-6.66797l-4.40214,-0.40771l3.46249,9.75195l11.99042,7.08203l13.66243,-2.41309l8.94049,-10.77734l0.03554,-14.1001l-8.88522,-10.82568z" fill="#171714" fill-opacity="1"></path></g><g><title>Shape</title><path d="M61.83994,33.28564v-8.19043h4.52454c3.14465,0 4.90946,0.9834 4.90946,4.09521c0,3.02295 -1.76481,4.09521 -5.29638,4.09521zM69.47755,8.46436c1.43711,0 2.33279,0.25 3.00846,1.01563l-2.60378,1.97119c0.54286,0.61426 0.78173,1.49561 0.78173,2.6377c0,2.35449 -1.04823,3.61328 -3.80597,3.61328h-5.02201l2.61958,-2.06982v-7.16797zM75.40958,20.87793c2.75776,-1.36914 4.60766,-3.97314 4.60766,-7.50146c0,-2.979 -1.01093,-5.54053 -2.88628,-7.41357l2.59391,-1.98096c-2.09052,-2.07178 -5.34574,-3.29443 -9.80512,-3.29443h-14.52319v21.71973l-2.60569,1.9834v16.58105h13.84798c9.48929,0 13.9566,-3.83203 13.9566,-11.22559c0,-3.83203 -1.70954,-6.89893 -5.18586,-8.74609z" fill="#171714" fill-opacity="1"></path></g><g><title>Path</title><path d="M231.84483,0.70801v0l-6.60928,13.10645v0l-6.34857,-12.76514v0l-0.14015,-0.34131v0h-10.4763v0l11.7417,23.60498v0l-8.30685,16.69922v0h10.12494v0l20.05049,-40.3042v0h-10.03596v0z" fill="#171714" fill-opacity="1"></path></g><g><title>Path</title><path d="M83.71033,41.01221v0v-40.3042v0h22.83391v0v8.17627v0h-14.21666v0v7.48535v0h14.21666v0v8.17578v0h-14.21666v0v8.29053v0h14.21666v0v8.17627v0z" fill="#171714" fill-opacity="1"></path></g><g><title>Shape</title><path d="M123.31862,24.89111l2.9453,-11.68896h0.22702l2.94528,11.68896zM121.90717,0.70801l-12.57078,40.30615h9.8525l2.26424,-7.88916h9.85722l2.25954,7.88916h9.85251l-12.57079,-40.30615z" fill="#171714" fill-opacity="1"></path></g><g><title>Path</title><path d="M143.6207,27.36621v0v-26.6582v0h9.33888v0v26.14014c0,3.7998 1.1331,6.27686 5.37932,6.27686c4.24619,0 5.37929,-2.4751 5.37929,-6.27686v-26.14014v0h9.40045v0v26.66016c0,8.9248 -4.98251,14.10791 -14.77777,14.10791c-9.79524,0 -14.72017,-5.18311 -14.72017,-14.10791z" fill="#171714" fill-opacity="1"></path></g><g><title>Path</title><path d="M206.30196,0.70801v0v8.75244v0h-10.24928v0v31.55371v0h-9.34578v0v-31.55371v0h-10.25862v0v-8.75244v0h29.85173v0z" fill="#171714" fill-opacity="1"></path></g><g><title>Shape</title><path d="M304.6705,24.89111l2.94528,-11.68896h0.14282l3.02948,11.68896zM303.25906,0.70801l-12.57083,40.30615h9.85251l2.26428,-7.88916h9.85251l2.26422,7.88916h9.85251l-12.57077,-40.30615z" fill="#171714" fill-opacity="1"></path></g><g><title>Path</title><path d="M346.87811,0.70801v0l-6.52032,13.10645v0l-6.34857,-12.76514v0l-0.14209,-0.34131v0h-10.47437v0l11.7417,23.60498v0l-8.30685,16.69922v0h10.12494v0l20.04745,-40.3042v0h-10.12189v0z" fill="#171714" fill-opacity="1"></path></g><g><title>Shape</title><path d="M277.41144,33.03516h-4.17114v-8.21387l-2.61169,-1.38916h4.50082c3.17035,0 4.94901,0.99756 4.94901,4.09668c0,0.33154 -0.02371,0.63428 -0.0632,0.91748l2.66891,1.42139c-0.33951,2.40869 -2.09445,3.16553 -5.27271,3.16553zM270.56937,8.59131h5.06152c2.7814,0 3.83755,1.27295 3.83755,3.70996c0,2.43652 -1.05615,3.65527 -3.83755,3.65527h-5.06152zM289.47885,28.13916c0,-3.87598 -1.72336,-6.97754 -5.22729,-8.75v-0.2207c2.78146,-1.38525 4.56006,-4.09717 4.56006,-7.58594c0,-6.36963 -4.17117,-10.854 -12.73462,-10.854h-14.62579v17.8335l2.6709,1.42334v20.91455h13.95856c7.10901,0 11.51862,-2.18994 13.26419,-6.45361l-2.70496,-1.4209c0.65323,-1.40527 0.83896,-3.03516 0.83896,-4.88623z" fill="#171714" fill-opacity="1"></path></g></g></g><g><title>Path</title><path d="M231.84483,0.70801v0l-6.60928,13.10645v0l-6.34857,-12.76514v0l-0.14015,-0.34131v0h-10.4763v0l11.7417,23.60498v0l-8.30685,16.69922v0h10.12494v0l20.05049,-40.3042v0h-10.03596v0z" fill="#171714" fill-opacity="1"></path></g><g><title>Shape</title><path d="M304.6705,24.89111l2.94528,-11.68896h0.14282l3.02948,11.68896zM303.25906,0.70801l-12.57083,40.30615h9.85251l2.26428,-7.88916h9.85251l2.26422,7.88916h9.85251l-12.57077,-40.30615z" fill="#171714" fill-opacity="1"></path></g><g><title>Shape</title><path d="M61.83994,33.28564v-8.19043h4.52454c3.14465,0 4.90946,0.9834 4.90946,4.09521c0,3.02295 -1.76481,4.09521 -5.29638,4.09521zM69.47755,8.46436c1.43711,0 2.33279,0.25 3.00846,1.01563l-2.60378,1.97119c0.54286,0.61426 0.78173,1.49561 0.78173,2.6377c0,2.35449 -1.04823,3.61328 -3.80597,3.61328h-5.02201l2.61958,-2.06982v-7.16797zM75.40958,20.87793c2.75776,-1.36914 4.60766,-3.97314 4.60766,-7.50146c0,-2.979 -1.01093,-5.54053 -2.88628,-7.41357l2.59391,-1.98096c-2.09052,-2.07178 -5.34574,-3.29443 -9.80512,-3.29443h-14.52319v21.71973l-2.60569,1.9834v16.58105h13.84798c9.48929,0 13.9566,-3.83203 13.9566,-11.22559c0,-3.83203 -1.70954,-6.89893 -5.18586,-8.74609z" fill="#171714" fill-opacity="1"></path></g><g><title>_LOGO_BB_BLACK</title><g><title>Shape</title><path d="M34.05444,26.31055l-7.0612,8.51123l-9.43994,1.66602l0.57643,-2.99512l5.00422,-1.82471c2.7854,-0.78662 7.64191,-4.33789 6.3387,-12.41357c-0.31584,-2.0752 -0.03357,-3.71729 0.84094,-4.87793c0.46227,-0.71631 1.24958,-1.18018 1.89906,-1.56689l1.8714,2.36182l-0.02764,11.13525zM13.7098,35.3335l-2.7005,-1.67383l0.95742,-4.97656l5.00424,-1.82471c2.78538,-0.78662 7.64973,-4.33789 6.33868,-12.41162c-0.31584,-2.07568 -0.03355,-3.68506 0.84096,-4.87793c1.31077,-1.73828 3.62831,-2.01709 3.63621,-2.01709l-0.00593,-0.0542l1.81218,2.20801c-0.86893,0.51172 -1.69967,1.20654 -2.42019,2.1499c-1.59306,2.0835 -2.15173,4.78564 -1.65623,8.0293c0.97321,6.38135 -2.94767,7.74463 -3.48223,7.87305l-7.39679,2.68604l-0.92582,4.88965zM29.20615,2.87842l-12.93204,-2.35449l1.54173,4.41797l4.4219,0.80518c-0.43429,0.36914 -0.85083,0.79688 -1.23182,1.29492c-1.59306,2.0835 -2.15173,4.78516 -1.65623,8.0293c0.97322,6.38135 -3.044,7.74414 -3.48223,7.87305l-7.39679,2.6875l-1.12718,5.86377l-0.60998,-0.25732l-2.33138,-6.66797l-4.40214,-0.40771l3.46249,9.75195l11.99042,7.08203l13.66243,-2.41309l8.94049,-10.77734l0.03554,-14.1001l-8.88522,-10.82568z" fill="#171714" fill-opacity="1"></path></g><g><title>Shape</title><path d="M61.83994,33.28564v-8.19043h4.52454c3.14465,0 4.90946,0.9834 4.90946,4.09521c0,3.02295 -1.76481,4.09521 -5.29638,4.09521zM69.47755,8.46436c1.43711,0 2.33279,0.25 3.00846,1.01563l-2.60378,1.97119c0.54286,0.61426 0.78173,1.49561 0.78173,2.6377c0,2.35449 -1.04823,3.61328 -3.80597,3.61328h-5.02201l2.61958,-2.06982v-7.16797zM75.40958,20.87793c2.75776,-1.36914 4.60766,-3.97314 4.60766,-7.50146c0,-2.979 -1.01093,-5.54053 -2.88628,-7.41357l2.59391,-1.98096c-2.09052,-2.07178 -5.34574,-3.29443 -9.80512,-3.29443h-14.52319v21.71973l-2.60569,1.9834v16.58105h13.84798c9.48929,0 13.9566,-3.83203 13.9566,-11.22559c0,-3.83203 -1.70954,-6.89893 -5.18586,-8.74609z" fill="#171714" fill-opacity="1"></path></g><g><title>Path</title><path d="M231.84483,0.70801v0l-6.60928,13.10645v0l-6.34857,-12.76514v0l-0.14015,-0.34131v0h-10.4763v0l11.7417,23.60498v0l-8.30685,16.69922v0h10.12494v0l20.05049,-40.3042v0h-10.03596v0z" fill="#171714" fill-opacity="1"></path></g><g><title>Path</title><path d="M83.71033,41.01221v0v-40.3042v0h22.83391v0v8.17627v0h-14.21666v0v7.48535v0h14.21666v0v8.17578v0h-14.21666v0v8.29053v0h14.21666v0v8.17627v0z" fill="#171714" fill-opacity="1"></path></g><g><title>Shape</title><path d="M123.31862,24.89111l2.9453,-11.68896h0.22702l2.94528,11.68896zM121.90717,0.70801l-12.57078,40.30615h9.8525l2.26424,-7.88916h9.85722l2.25954,7.88916h9.85251l-12.57079,-40.30615z" fill="#171714" fill-opacity="1"></path></g><g><title>Path</title><path d="M143.6207,27.36621v0v-26.6582v0h9.33888v0v26.14014c0,3.7998 1.1331,6.27686 5.37932,6.27686c4.24619,0 5.37929,-2.4751 5.37929,-6.27686v-26.14014v0h9.40045v0v26.66016c0,8.9248 -4.98251,14.10791 -14.77777,14.10791c-9.79524,0 -14.72017,-5.18311 -14.72017,-14.10791z" fill="#171714" fill-opacity="1"></path></g><g><title>Path</title><path d="M206.30196,0.70801v0v8.75244v0h-10.24928v0v31.55371v0h-9.34578v0v-31.55371v0h-10.25862v0v-8.75244v0h29.85173v0z" fill="#171714" fill-opacity="1"></path></g><g><title>Shape</title><path d="M304.6705,24.89111l2.94528,-11.68896h0.14282l3.02948,11.68896zM303.25906,0.70801l-12.57083,40.30615h9.85251l2.26428,-7.88916h9.85251l2.26422,7.88916h9.85251l-12.57077,-40.30615z" fill="#171714" fill-opacity="1"></path></g><g><title>Path</title><path d="M346.87811,0.70801v0l-6.52032,13.10645v0l-6.34857,-12.76514v0l-0.14209,-0.34131v0h-10.47437v0l11.7417,23.60498v0l-8.30685,16.69922v0h10.12494v0l20.04745,-40.3042v0h-10.12189v0z" fill="#171714" fill-opacity="1"></path></g><g><title>Shape</title><path d="M277.41144,33.03516h-4.17114v-8.21387l-2.61169,-1.38916h4.50082c3.17035,0 4.94901,0.99756 4.94901,4.09668c0,0.33154 -0.02371,0.63428 -0.0632,0.91748l2.66891,1.42139c-0.33951,2.40869 -2.09445,3.16553 -5.27271,3.16553zM270.56937,8.59131h5.06152c2.7814,0 3.83755,1.27295 3.83755,3.70996c0,2.43652 -1.05615,3.65527 -3.83755,3.65527h-5.06152zM289.47885,28.13916c0,-3.87598 -1.72336,-6.97754 -5.22729,-8.75v-0.2207c2.78146,-1.38525 4.56006,-4.09717 4.56006,-7.58594c0,-6.36963 -4.17117,-10.854 -12.73462,-10.854h-14.62579v17.8335l2.6709,1.42334v20.91455h13.95856c7.10901,0 11.51862,-2.18994 13.26419,-6.45361l-2.70496,-1.4209c0.65323,-1.40527 0.83896,-3.03516 0.83896,-4.88623z" fill="#171714" fill-opacity="1"></path></g></g><g><title>Shape</title><path d="M123.31862,24.89111l2.9453,-11.68896h0.22702l2.94528,11.68896zM121.90717,0.70801l-12.57078,40.30615h9.8525l2.26424,-7.88916h9.85722l2.25954,7.88916h9.85251l-12.57079,-40.30615z" fill="#171714" fill-opacity="1"></path></g><g><title>Shape</title><path d="M34.05444,26.31055l-7.0612,8.51123l-9.43994,1.66602l0.57643,-2.99512l5.00422,-1.82471c2.7854,-0.78662 7.64191,-4.33789 6.3387,-12.41357c-0.31584,-2.0752 -0.03357,-3.71729 0.84094,-4.87793c0.46227,-0.71631 1.24958,-1.18018 1.89906,-1.56689l1.8714,2.36182l-0.02764,11.13525zM13.7098,35.3335l-2.7005,-1.67383l0.95742,-4.97656l5.00424,-1.82471c2.78538,-0.78662 7.64973,-4.33789 6.33868,-12.41162c-0.31584,-2.07568 -0.03355,-3.68506 0.84096,-4.87793c1.31077,-1.73828 3.62831,-2.01709 3.63621,-2.01709l-0.00593,-0.0542l1.81218,2.20801c-0.86893,0.51172 -1.69967,1.20654 -2.42019,2.1499c-1.59306,2.0835 -2.15173,4.78564 -1.65623,8.0293c0.97321,6.38135 -2.94767,7.74463 -3.48223,7.87305l-7.39679,2.68604l-0.92582,4.88965zM29.20615,2.87842l-12.93204,-2.35449l1.54173,4.41797l4.4219,0.80518c-0.43429,0.36914 -0.85083,0.79688 -1.23182,1.29492c-1.59306,2.0835 -2.15173,4.78516 -1.65623,8.0293c0.97322,6.38135 -3.044,7.74414 -3.48223,7.87305l-7.39679,2.6875l-1.12718,5.86377l-0.60998,-0.25732l-2.33138,-6.66797l-4.40214,-0.40771l3.46249,9.75195l11.99042,7.08203l13.66243,-2.41309l8.94049,-10.77734l0.03554,-14.1001l-8.88522,-10.82568z" fill="#171714" fill-opacity="1"></path></g><g><title>Path</title><path d="M206.30196,0.70801v0v8.75244v0h-10.24928v0v31.55371v0h-9.34578v0v-31.55371v0h-10.25862v0v-8.75244v0h29.85173v0z" fill="#171714" fill-opacity="1"></path></g><g><title>Path</title><path d="M83.71033,41.01221v0v-40.3042v0h22.83391v0v8.17627v0h-14.21666v0v7.48535v0h14.21666v0v8.17578v0h-14.21666v0v8.29053v0h14.21666v0v8.17627v0z" fill="#171714" fill-opacity="1"></path></g><g><title>Shape</title><path d="M277.41144,33.03516h-4.17114v-8.21387l-2.61169,-1.38916h4.50082c3.17035,0 4.94901,0.99756 4.94901,4.09668c0,0.33154 -0.02371,0.63428 -0.0632,0.91748l2.66891,1.42139c-0.33951,2.40869 -2.09445,3.16553 -5.27271,3.16553zM270.56937,8.59131h5.06152c2.7814,0 3.83755,1.27295 3.83755,3.70996c0,2.43652 -1.05615,3.65527 -3.83755,3.65527h-5.06152zM289.47885,28.13916c0,-3.87598 -1.72336,-6.97754 -5.22729,-8.75v-0.2207c2.78146,-1.38525 4.56006,-4.09717 4.56006,-7.58594c0,-6.36963 -4.17117,-10.854 -12.73462,-10.854h-14.62579v17.8335l2.6709,1.42334v20.91455h13.95856c7.10901,0 11.51862,-2.18994 13.26419,-6.45361l-2.70496,-1.4209c0.65323,-1.40527 0.83896,-3.03516 0.83896,-4.88623z" fill="#171714" fill-opacity="1"></path></g><g><title>Path</title><path d="M143.6207,27.36621v0v-26.6582v0h9.33888v0v26.14014c0,3.7998 1.1331,6.27686 5.37932,6.27686c4.24619,0 5.37929,-2.4751 5.37929,-6.27686v-26.14014v0h9.40045v0v26.66016c0,8.9248 -4.98251,14.10791 -14.77777,14.10791c-9.79524,0 -14.72017,-5.18311 -14.72017,-14.10791z" fill="#171714" fill-opacity="1"></path></g><g><title>Path</title><path d="M346.87811,0.70801v0l-6.52032,13.10645v0l-6.34857,-12.76514v0l-0.14209,-0.34131v0h-10.47437v0l11.7417,23.60498v0l-8.30685,16.69922v0h10.12494v0l20.04745,-40.3042v0h-10.12189v0z" fill="#171714" fill-opacity="1"></path></g></g></svg>